<mxfile host="app.diagrams.net" modified="2024-04-19T01:04:18.603Z" agent="Mozilla/5.0 (Windows NT 10.0; Win64; x64; rv:124.0) Gecko/20100101 Firefox/124.0" etag="7JN-CraPSHy0Z6bm2wiP" version="24.2.2" type="device">
  <diagram name="Page-1" id="ixJaoR78EGxp6nqWL-x5">
    <mxGraphModel dx="794" dy="367" grid="1" gridSize="10" guides="1" tooltips="1" connect="1" arrows="1" fold="1" page="1" pageScale="1" pageWidth="850" pageHeight="1100" math="0" shadow="0">
      <root>
        <mxCell id="0" />
        <mxCell id="1" parent="0" />
        <mxCell id="Hyh_rJkvXiW8YJRngygw-1" value="admin" style="shape=umlActor;verticalLabelPosition=bottom;verticalAlign=top;html=1;outlineConnect=0;" parent="1" vertex="1">
          <mxGeometry x="200" y="280" width="30" height="60" as="geometry" />
        </mxCell>
        <mxCell id="Hyh_rJkvXiW8YJRngygw-2" value="Pelanggan" style="shape=umlActor;verticalLabelPosition=bottom;verticalAlign=top;html=1;outlineConnect=0;" parent="1" vertex="1">
          <mxGeometry x="660" y="290" width="30" height="60" as="geometry" />
        </mxCell>
        <mxCell id="Hyh_rJkvXiW8YJRngygw-3" value="" style="whiteSpace=wrap;html=1;aspect=fixed;" parent="1" vertex="1">
          <mxGeometry x="250" y="200" width="380" height="380" as="geometry" />
        </mxCell>
        <mxCell id="Hyh_rJkvXiW8YJRngygw-4" value="Aplikasi Booking" style="text;html=1;align=center;verticalAlign=middle;whiteSpace=wrap;rounded=0;" parent="1" vertex="1">
          <mxGeometry x="375" y="200" width="130" height="30" as="geometry" />
        </mxCell>
        <mxCell id="Hyh_rJkvXiW8YJRngygw-5" value="Membuat Booking Perjalanan" style="ellipse;whiteSpace=wrap;html=1;" parent="1" vertex="1">
          <mxGeometry x="382.5" y="280" width="115" height="50" as="geometry" />
        </mxCell>
        <mxCell id="Hyh_rJkvXiW8YJRngygw-7" value="Login" style="ellipse;whiteSpace=wrap;html=1;" parent="1" vertex="1">
          <mxGeometry x="405" y="240" width="70" height="30" as="geometry" />
        </mxCell>
        <mxCell id="Hyh_rJkvXiW8YJRngygw-8" value="Mengelola Perjalanan Booking" style="ellipse;whiteSpace=wrap;html=1;" parent="1" vertex="1">
          <mxGeometry x="465" y="330" width="115" height="50" as="geometry" />
        </mxCell>
        <mxCell id="Hyh_rJkvXiW8YJRngygw-9" value="Mengelola Data Pelanggan" style="ellipse;whiteSpace=wrap;html=1;" parent="1" vertex="1">
          <mxGeometry x="350" y="360" width="115" height="50" as="geometry" />
        </mxCell>
        <mxCell id="Hyh_rJkvXiW8YJRngygw-10" value="Mengelola Data Armada" style="ellipse;whiteSpace=wrap;html=1;" parent="1" vertex="1">
          <mxGeometry x="430" y="420" width="115" height="50" as="geometry" />
        </mxCell>
        <mxCell id="Hyh_rJkvXiW8YJRngygw-11" value="Logout" style="ellipse;whiteSpace=wrap;html=1;" parent="1" vertex="1">
          <mxGeometry x="382.5" y="520" width="115" height="50" as="geometry" />
        </mxCell>
        <mxCell id="Hyh_rJkvXiW8YJRngygw-12" value="" style="endArrow=classic;html=1;rounded=0;entryX=0;entryY=0.5;entryDx=0;entryDy=0;" parent="1" target="Hyh_rJkvXiW8YJRngygw-7" edge="1">
          <mxGeometry width="50" height="50" relative="1" as="geometry">
            <mxPoint x="240" y="290" as="sourcePoint" />
            <mxPoint x="490" y="330" as="targetPoint" />
          </mxGeometry>
        </mxCell>
        <mxCell id="Hyh_rJkvXiW8YJRngygw-13" value="" style="endArrow=classic;html=1;rounded=0;entryX=0;entryY=0.5;entryDx=0;entryDy=0;" parent="1" target="Hyh_rJkvXiW8YJRngygw-5" edge="1">
          <mxGeometry width="50" height="50" relative="1" as="geometry">
            <mxPoint x="250" y="300" as="sourcePoint" />
            <mxPoint x="415" y="265" as="targetPoint" />
          </mxGeometry>
        </mxCell>
        <mxCell id="Hyh_rJkvXiW8YJRngygw-14" value="" style="endArrow=classic;html=1;rounded=0;" parent="1" target="Hyh_rJkvXiW8YJRngygw-8" edge="1">
          <mxGeometry width="50" height="50" relative="1" as="geometry">
            <mxPoint x="240" y="320" as="sourcePoint" />
            <mxPoint x="393" y="315" as="targetPoint" />
          </mxGeometry>
        </mxCell>
        <mxCell id="Hyh_rJkvXiW8YJRngygw-15" value="" style="endArrow=classic;html=1;rounded=0;entryX=-0.008;entryY=0.409;entryDx=0;entryDy=0;entryPerimeter=0;" parent="1" target="Hyh_rJkvXiW8YJRngygw-9" edge="1">
          <mxGeometry width="50" height="50" relative="1" as="geometry">
            <mxPoint x="240" y="340" as="sourcePoint" />
            <mxPoint x="399" y="364" as="targetPoint" />
          </mxGeometry>
        </mxCell>
        <mxCell id="Hyh_rJkvXiW8YJRngygw-16" value="" style="endArrow=classic;html=1;rounded=0;entryX=0;entryY=0.5;entryDx=0;entryDy=0;" parent="1" target="Hyh_rJkvXiW8YJRngygw-10" edge="1">
          <mxGeometry width="50" height="50" relative="1" as="geometry">
            <mxPoint x="240" y="350" as="sourcePoint" />
            <mxPoint x="392" y="430" as="targetPoint" />
          </mxGeometry>
        </mxCell>
        <mxCell id="Hyh_rJkvXiW8YJRngygw-17" value="" style="endArrow=classic;html=1;rounded=0;entryX=0.035;entryY=0.337;entryDx=0;entryDy=0;entryPerimeter=0;" parent="1" target="Hyh_rJkvXiW8YJRngygw-11" edge="1">
          <mxGeometry width="50" height="50" relative="1" as="geometry">
            <mxPoint x="230" y="380" as="sourcePoint" />
            <mxPoint x="363" y="492.5" as="targetPoint" />
          </mxGeometry>
        </mxCell>
        <mxCell id="Hyh_rJkvXiW8YJRngygw-18" value="" style="endArrow=classic;html=1;rounded=0;entryX=1;entryY=0.5;entryDx=0;entryDy=0;" parent="1" target="Hyh_rJkvXiW8YJRngygw-5" edge="1">
          <mxGeometry width="50" height="50" relative="1" as="geometry">
            <mxPoint x="650" y="320" as="sourcePoint" />
            <mxPoint x="393" y="495" as="targetPoint" />
          </mxGeometry>
        </mxCell>
        <mxCell id="MIWOb9gMFmdjJp6ePXpv-1" value="Mengelola Tujuan Travel" style="ellipse;whiteSpace=wrap;html=1;" vertex="1" parent="1">
          <mxGeometry x="480" y="480" width="115" height="50" as="geometry" />
        </mxCell>
        <mxCell id="MIWOb9gMFmdjJp6ePXpv-2" value="" style="endArrow=classic;html=1;rounded=0;entryX=0;entryY=0.5;entryDx=0;entryDy=0;" edge="1" parent="1" target="MIWOb9gMFmdjJp6ePXpv-1">
          <mxGeometry width="50" height="50" relative="1" as="geometry">
            <mxPoint x="240" y="367.5" as="sourcePoint" />
            <mxPoint x="397" y="547" as="targetPoint" />
          </mxGeometry>
        </mxCell>
      </root>
    </mxGraphModel>
  </diagram>
</mxfile>
